<svg width="10px" height="18px" viewBox="0 0 10 18" version="1.1" xmlns="http://www.w3.org/2000/svg" xmlns:xlink="http://www.w3.org/1999/xlink">
    <!-- Generator: Sketch 51.2 (57519) - http://www.bohemiancoding.com/sketch -->
    <desc>Created with Sketch.</desc>
    <defs></defs>
    <g id="home" stroke="none" stroke-width="1" fill="none" fill-rule="evenodd" opacity="0.717601103">
        <g id="01MainPage" transform="translate(-860.000000, -735.000000)" fill="#000000">
            <g id="Content" transform="translate(0.000000, -5.000000)">
                <g id="Header">
                    <g id="Footer" transform="translate(0.000000, 705.000000)">
                        <g id="Follow" transform="translate(662.000000, 0.000000)">
                            <path d="M204.361632,53 L201.135612,53 C200.894157,53 200.6957,52.8063012 200.6957,52.5706343 L200.6957,45.1810247 L198.438809,45.1810247 C198.198456,45.1810247 198,44.9873259 198,44.7527351 L198,41.704131 C198,41.4695403 198.198456,41.2758415 198.438809,41.2758415 L200.6957,41.2758415 L200.6957,39.4604532 C200.6957,36.7067017 202.401323,35 205.153252,35 C206.381477,35 207.367144,35.092545 207.61742,35.1259042 C207.836825,35.1517307 208,35.3368207 208,35.5509655 L208,38.274586 C208,38.5145573 207.802646,38.70718 207.561191,38.70718 L205.907387,38.70718 C204.955899,38.70718 204.800441,39.0181742 204.800441,39.7628385 L204.800441,41.2758415 L207.453142,41.2758415 C207.578831,41.2758415 207.699008,41.3307228 207.780595,41.4232678 C207.866593,41.5158128 207.905182,41.6374126 207.888644,41.7590124 L207.487321,44.8065403 C207.457552,45.0217612 207.272326,45.1853291 207.048512,45.1853291 L204.800441,45.1853291 L204.800441,52.5706343 C204.800441,52.8106056 204.601985,53 204.361632,53 Z M201.578831,52.1423447 L203.91731,52.1423447 L203.91731,44.7527351 C203.91731,44.5127638 204.115766,44.3233694 204.361632,44.3233694 L206.660419,44.3233694 L206.949283,42.1378012 L204.361632,42.1378012 C204.115766,42.1378012 203.91731,41.9441023 203.91731,41.704131 L203.91731,39.7585341 C203.91731,38.9385425 204.124587,37.8462964 205.907387,37.8462964 L207.117971,37.8462964 L207.117971,35.9415914 C206.669239,35.9039278 205.945976,35.8619597 205.153252,35.8619597 C202.914002,35.8619597 201.578831,37.2070903 201.578831,39.4604532 L201.578831,41.704131 C201.578831,41.9441023 201.380375,42.1378012 201.135612,42.1378012 L198.883131,42.1378012 L198.883131,44.3233694 L201.135612,44.3233694 C201.380375,44.3233694 201.578831,44.5127638 201.578831,44.7527351 L201.578831,52.1423447 Z"
                                  id="Fill-1"></path>
                        </g>
                    </g>
                </g>
            </g>
        </g>
    </g>
</svg>