<svg width="19px" height="18px" viewBox="0 0 19 18" version="1.1" xmlns="http://www.w3.org/2000/svg" xmlns:xlink="http://www.w3.org/1999/xlink">
    <!-- Generator: Sketch 51.2 (57519) - http://www.bohemiancoding.com/sketch -->
    <desc>Created with Sketch.</desc>
    <defs></defs>
    <g id="home" stroke="none" stroke-width="1" fill="none" fill-rule="evenodd" opacity="0.72466682">
        <g id="01MainPage" transform="translate(-897.000000, -736.000000)" fill="#000000">
            <g id="Content" transform="translate(0.000000, -5.000000)">
                <g id="Header">
                    <g id="Footer" transform="translate(0.000000, 705.000000)">
                        <g id="Follow" transform="translate(662.000000, 0.000000)">
                            <g id="Github" transform="translate(236.000000, 37.000000)">
                                <path d="M6.12,8.72727273 C5.12685,8.72727273 4.32,9.70576032 4.32,10.9079542 C4.32,12.1124215 5.12685,13.0909091 6.12,13.0909091 C7.11135,13.0909091 7.92,12.1124215 7.92,10.9079542 C7.92,9.70576032 7.11135,8.72727273 6.12,8.72727273 Z M6.12,12.3647731 C5.5242,12.3647731 5.0391,11.7109324 5.0391,10.9079542 C5.0391,10.1072494 5.5242,9.45340874 6.12,9.45340874 C6.7158,9.45340874 7.1991,10.1072494 7.1991,10.9079542 C7.1991,11.7109324 6.7158,12.3647731 6.12,12.3647731 Z"
                                      id="Fill-1"></path>
                                <path d="M11.88,8.72727273 C10.88685,8.72727273 10.08,9.70576032 10.08,10.9079542 C10.08,12.1124215 10.88685,13.0909091 11.88,13.0909091 C12.87315,13.0909091 13.68,12.1124215 13.68,10.9079542 C13.68,9.70576032 12.87315,8.72727273 11.88,8.72727273 Z M11.88,12.3647731 C11.2842,12.3647731 10.8009,11.7109324 10.8009,10.9079542 C10.8009,10.1072494 11.2842,9.45340874 11.88,9.45340874 C12.4758,9.45340874 12.95955,10.1072494 12.95955,10.9079542 C12.95955,11.7109324 12.4758,12.3647731 11.88,12.3647731 Z"
                                      id="Fill-2"></path>
                                <g id="Group-6">
                                    <path d="M12.5048,7.13928205 C12.4892,7.13928205 12.472,7.13928205 12.4564,7.13928205 C12.1592,7.14379487 11.864,7.15692308 11.5672,7.168 C11.2968,7.17907692 11.0264,7.1905641 10.7564,7.19671795 L10.2876,7.2065641 C9.4736,7.22420513 8.6312,7.24184615 7.808,7.2385641 C7.4312,7.23692308 7.0564,7.2225641 6.6812,7.20820513 C6.1688,7.18892308 5.6408,7.168 5.1172,7.18071795 C4.3892,7.19835897 3.778,7.43712821 3.2984,7.88923077 C2.5,8.64082051 2.172,9.63733333 2.2908,10.9353846 C2.464,12.8201026 3.2064,13.7850256 4.8516,14.2625641 C6.2344,14.6629744 7.6236,14.6998974 8.7936,14.6822564 L9.1844,14.6838974 C9.3156,14.6855385 9.4468,14.6871795 9.578,14.6871795 C9.7408,14.6871795 9.9032,14.6855385 10.0656,14.6789744 C11.2156,14.6424615 12.2236,14.4660513 13.1468,14.1407179 C14.1608,13.7833846 14.8376,13.1007179 15.1532,12.113641 C15.3952,11.3587692 15.4672,10.6441026 15.3704,9.92738462 C15.2156,8.76266667 14.2236,7.13928205 12.5048,7.13928205 Z M14.5452,11.9085128 C14.292,12.7015385 13.7656,13.2287179 12.9392,13.5204103 C12.078,13.8235897 11.1312,13.9885128 10.0452,14.0237949 C9.7592,14.0332308 9.4752,14.0299487 9.1892,14.0287179 L8.7908,14.0270769 C7.6624,14.0430769 6.3296,14.0094359 5.0264,13.6311795 C3.6436,13.2287179 3.0764,12.4820513 2.928,10.8746667 C2.828,9.79446154 3.092,8.97558974 3.7312,8.37292308 C4.0936,8.03158974 4.564,7.85066667 5.1328,7.83630769 C5.6376,7.82482051 6.1548,7.84410256 6.6564,7.86338462 C7.0392,7.87774359 7.422,7.89374359 7.8048,7.89538462 C8.6392,7.89866667 9.4844,7.88102564 10.3016,7.86338462 L10.7704,7.85230769 C11.0436,7.84738462 11.3188,7.83630769 11.592,7.82482051 C11.8844,7.81210256 12.1752,7.79938462 12.4672,7.79446154 C12.478,7.79446154 12.4908,7.79446154 12.5016,7.79446154 C13.8236,7.79446154 14.6156,9.11507692 14.736,10.0172308 C14.8188,10.6326154 14.7564,11.2512821 14.5452,11.9085128 Z"
                                          id="Fill-3"></path>
                                    <path d="M16.5968,5.05435897 C16.4064,4.78646154 16.3204,4.62769231 16.3468,4.34092308 C16.4032,3.73538462 16.3236,3.12615385 16.2452,2.53825641 L16.2392,2.49969231 C16.136,1.71117949 15.9344,0.957948718 15.642,0.260923077 L15.5376,0.0139487179 L15.0656,0.116512821 C14.4092,0.259282051 13.7296,0.405333333 13.1108,0.772102564 C12.7,1.01579487 12.292,1.27548718 11.8968,1.52533333 C11.6312,1.69353846 11.3672,1.86174359 11.1,2.0254359 C11.086,2.03487179 11.058,2.0414359 11.05,2.0414359 C9.6188,1.78502564 8.1312,1.78174359 6.6296,2.03323077 C6.6124,2.03651282 6.5516,2.02707692 6.5032,1.99794872 C6.3376,1.89538462 6.1764,1.78666667 6.0172,1.67917949 C5.8296,1.55241026 5.6436,1.42605128 5.4516,1.31076923 C4.536,0.759384615 3.5236,0.227282051 2.3296,0.0717948718 L2.0968,0.0397948718 L1.972,0.317128205 C1.9484,0.368410256 1.9296,0.411487179 1.9124,0.456615385 C1.5704,1.40348718 1.364,2.39548718 1.2968,3.43876923 C1.2736,3.79938462 1.25,4.17271795 1.3016,4.54605128 C1.3188,4.66953846 1.3048,4.69538462 1.258,4.75610256 C0.8264,5.30748718 0.5188,5.88266667 0.3156,6.51733333 C-0.0264,7.58317949 -0.0892,8.76430769 0.1204,10.2338462 C0.292,11.4646154 0.5876,12.3618462 1.072,13.1421538 C2.0936,14.7864615 3.672,15.7128205 5.7608,15.8953846 C6.8048,15.9868718 7.864,15.9995897 8.9032,15.9995897 C9.1264,15.9995897 9.3484,15.9995897 9.5704,15.9979487 C9.8624,15.9979487 10.1532,15.9963077 10.4436,15.9979487 C11.7828,15.9979487 12.8484,15.8203077 13.8188,15.4309744 C15.5452,14.7368205 16.6936,13.4469744 17.2312,11.5942564 C17.5312,10.5620513 17.664,9.46461538 17.6296,8.33148718 C17.5908,7.06871795 17.242,5.96594872 16.5968,5.05435897 Z M16.6172,11.4067692 C16.1328,13.0781538 15.1408,14.1952821 13.586,14.8184615 C12.6936,15.1774359 11.708,15.3472821 10.4452,15.3411282 C10.1532,15.3411282 9.8608,15.3411282 9.5688,15.3427692 C8.3328,15.345641 7.0564,15.3489231 5.8156,15.2402051 C3.9092,15.0748718 2.5344,14.272 1.6124,12.7897436 C1.178,12.0910769 0.9124,11.2738462 0.7532,10.1390769 C0.5564,8.75446154 0.6092,7.70174359 0.9236,6.72246154 C1.1016,6.16492308 1.3752,5.65497436 1.7564,5.16635897 C1.9236,4.95179487 1.9752,4.74502564 1.9344,4.45333333 C1.892,4.14892308 1.914,3.80882051 1.9376,3.44820513 C1.9968,2.52841026 2.1812,1.62297436 2.486,0.759384615 C3.4672,0.937025641 4.3328,1.3985641 5.1264,1.87610256 C5.3092,1.98523077 5.486,2.1054359 5.664,2.22564103 C5.8312,2.33928205 6.0016,2.45333333 6.1752,2.56041026 C6.3468,2.66625641 6.5564,2.71138462 6.7328,2.68061538 C8.1624,2.44184615 9.578,2.44348718 10.9408,2.68717949 C11.0968,2.71425641 11.2844,2.67774359 11.4296,2.58789744 C11.6984,2.4225641 11.9656,2.25271795 12.2328,2.08287179 C12.6296,1.83138462 13.0264,1.57825641 13.4312,1.33948718 C13.9484,1.03179487 14.5344,0.90174359 15.1532,0.768820513 C15.3688,1.33948718 15.5204,1.94994872 15.6048,2.58625641 L15.6108,2.62646154 C15.6828,3.1774359 15.7592,3.74810256 15.7092,4.27692308 C15.6592,4.79917949 15.8564,5.12451282 16.078,5.44041026 C16.6564,6.25435897 16.9532,7.20820513 16.9892,8.35241026 C17.0236,9.4145641 16.8984,10.4434872 16.6172,11.4067692 Z"
                                          id="Fill-5" stroke="#000000" stroke-width="0.2"></path>
                                </g>
                            </g>
                        </g>
                    </g>
                </g>
            </g>
        </g>
    </g>
</svg>