<svg width="82px" height="85px" viewBox="0 0 82 85" version="1.1" xmlns="http://www.w3.org/2000/svg" xmlns:xlink="http://www.w3.org/1999/xlink">
    <!-- Generator: Sketch 51.2 (57519) - http://www.bohemiancoding.com/sketch -->
    <desc>Created with Sketch.</desc>
    <defs></defs>
    <g id="home" stroke="none" stroke-width="1" fill="none" fill-rule="evenodd">
        <g id="01MainPage" transform="translate(-478.000000, -94.000000)" fill="#05ACFF">
            <path d="M479.708172,178.88677 L557.694981,178.88677 C558.643294,178.88677 559.40229,178.127775 559.40229,177.179461 L559.40229,117.080154 C559.40229,116.976655 559.385256,116.872939 559.367575,116.770303 C559.367575,116.735587 559.350756,116.701087 559.333075,116.666588 C559.316256,116.597588 559.298575,116.545407 559.281756,116.476192 C559.264075,116.441692 559.247256,116.390373 559.229575,116.355874 C559.195076,116.30434 559.178041,116.252159 559.143541,116.20084 C559.12586,116.16634 559.09136,116.131841 559.074542,116.097125 C559.057723,116.079444 559.057723,116.062625 559.040042,116.044944 L542.186887,94.6552807 C541.859139,94.2417143 541.376573,94 540.84161,94 L496.560464,94 C496.043398,94 495.542935,94.2417143 495.215403,94.6552807 L478.362248,116.044944 C478.345429,116.062625 478.345429,116.079444 478.327748,116.097125 C478.310714,116.131841 478.276214,116.16634 478.258533,116.20084 C478.224033,116.252159 478.189533,116.30434 478.172715,116.355874 C478.155033,116.390373 478.138215,116.424873 478.120534,116.476192 C478.103499,116.545407 478.085818,116.597588 478.069,116.666588 C478.051318,116.701087 478.051318,116.735587 478.0345,116.770303 C478.016819,116.872939 478,116.976655 478,117.080154 L478,177.179461 C478,178.127775 478.776677,178.88677 479.708172,178.88677 Z M520.417295,97.398662 L540.013831,97.398662 L554.175785,115.372845 L520.417295,115.372845 L520.417295,97.398662 Z M497.40614,97.398662 L517.001814,97.398662 L517.001814,115.372845 L483.226289,115.372845 L497.40614,97.398662 Z M481.415481,175.47129 L555.986809,175.47129 L555.986809,118.788326 L481.415481,118.788326 L481.415481,175.47129 Z"
                  id="Fill-1"></path>
            <g id="Group-2" transform="translate(495.000000, 134.000000)" stroke="#05ACFF" stroke-width="0.5">
                <g id="Group-3">
                    <path d="M13.1088923,0.304688162 L6.54345716,4.1105617 L6.54345716,11.7206611 L13.1088923,15.5196145 L19.6729052,11.7206611 L19.6729052,4.1105617 L13.1088923,0.304688162 Z M13.1088923,1.22638883 L18.8791802,4.57135712 L18.8791802,11.2542637 L13.1088923,14.6019781 L7.33860443,11.2542637 L7.33860443,4.57135712 L13.1088923,1.22638883 Z"
                          id="Fill-17"></path>
                    <path d="M8.7316438,10.6837341 C8.51393011,10.6837341 8.33396076,10.5044688 8.33396076,10.2831332 L8.33396076,5.33707937 C8.33396076,5.1200277 8.51393011,4.93779657 8.7316438,4.93779657 C8.95209258,4.93779657 9.12506009,5.1200277 9.12506009,5.33707937 L9.12506009,10.2831332 C9.12506009,10.5044688 8.95209258,10.6837341 8.7316438,10.6837341"
                          id="Fill-18"></path>
                    <path d="M17.5959823,5.78403444 C17.5234475,5.78480335 17.4591181,5.77008426 17.3889902,5.732957 L12.9152475,3.13778359 C12.7339653,3.02497384 12.6630716,2.78342697 12.7767422,2.59581349 C12.8835204,2.40270781 13.1283662,2.33833925 13.3151186,2.44851274 L17.7860168,5.04214833 C17.9769265,5.15221198 18.0409278,5.39375885 17.9328368,5.58543656 C17.860302,5.71241618 17.7313149,5.78249663 17.5959823,5.78403444"
                          id="Fill-19"></path>
                    <path d="M11.3773574,16.5063428 C11.3048226,16.5071117 11.2404932,16.4922828 11.1703653,16.4552654 L6.69662257,13.8600919 C6.51534037,13.7472822 6.44433726,13.5057353 6.55800787,13.3181218 C6.66478604,13.1250162 6.90963188,13.0606476 7.09649368,13.1707112 L11.5673919,15.7644567 C11.7583016,15.8745203 11.8221935,16.1160672 11.7142119,16.3077449 C11.6415677,16.4347245 11.5125806,16.504805 11.3773574,16.5063428"
                          id="Fill-20"></path>
                    <path d="M28.878912,20.0628705 C28.8062678,20.0636395 28.7420477,20.0489204 28.6718105,20.0117931 L24.1980677,17.4166197 C24.0168949,17.3038099 23.9458918,17.0622631 24.0595624,16.8746496 C24.1663406,16.6815439 24.4111865,16.6171754 24.5980483,16.727239 L29.0688371,19.3209844 C29.2598562,19.4310481 29.3237481,19.672595 29.2157665,19.8642727 C29.1431223,19.9912523 29.0141351,20.0613327 28.878912,20.0628705"
                          id="Fill-21"></path>
                    <path d="M46.5246608,16.4931615 C46.4521261,16.4939304 46.3877966,16.4792113 46.3176687,16.4420841 L41.843926,13.8469107 C41.6626438,13.7341009 41.5917501,13.4925541 41.7054207,13.3049406 C41.8121989,13.1118349 42.0570447,13.0474663 42.2437971,13.15753 L46.7146953,15.7512754 C46.9056051,15.8613391 46.9696063,16.1028859 46.8615153,16.2945636 C46.7889806,16.4215433 46.6599934,16.4916237 46.5246608,16.4931615"
                          id="Fill-22"></path>
                    <path d="M40.3191644,5.78403444 C40.2466296,5.78480335 40.1823002,5.77008426 40.1121723,5.732957 L35.6384296,3.13778359 C35.4571474,3.02497384 35.3861443,2.78342697 35.4998149,2.59581349 C35.606593,2.40270781 35.8514389,2.33833925 36.0383007,2.44851274 L40.5091989,5.04214833 C40.7001086,5.15221198 40.7640005,5.39375885 40.6560189,5.58543656 C40.5833747,5.71241618 40.4543876,5.78249663 40.3191644,5.78403444"
                          id="Fill-23"></path>
                    <path d="M6.88600065,11.0084329 L0.331724695,14.8100225 L0.331724695,22.418694 L6.88600065,26.2217116 L13.4500135,22.418694 L13.4500135,14.8100225 L6.88600065,11.0084329 Z M6.88600065,11.9272776 L12.6561791,15.2707081 L12.6561791,21.9592167 L6.88600065,25.2986928 L1.11571277,21.9592167 L1.11571277,15.2707081 L6.88600065,11.9272776 Z"
                          id="Fill-24"></path>
                    <path d="M2.48796541,21.2499542 C2.26478153,21.2499542 2.08886012,21.0777189 2.08886012,20.8577014 L2.08886012,15.9103295 C2.08886012,15.6862478 2.26478153,15.5111565 2.48796541,15.5111565 C2.70152174,15.5111565 2.8758021,15.6862478 2.8758021,15.9103295 L2.8758021,20.8577014 C2.8758021,21.0777189 2.70152174,21.2499542 2.48796541,21.2499542"
                          id="Fill-25"></path>
                    <path d="M6.90799083,24.2176085 C6.77265825,24.2202448 6.63874792,24.1485167 6.56369687,24.0182417 C6.4483852,23.8242573 6.50932315,23.5779871 6.70406203,23.4734157 L10.9674211,20.9988509 C11.1550487,20.8847231 11.3990194,20.9471144 11.5142216,21.1397807 C11.6169518,21.3297009 11.5518565,21.5761908 11.3626973,21.6876824 L7.10218268,24.1607093 C7.04430804,24.19542 6.97625884,24.2162904 6.90799083,24.2176085"
                          id="Fill-26"></path>
                    <path d="M24.4356929,27.7741363 C24.3004698,27.7767725 24.1665594,27.7050444 24.091399,27.5747695 C23.9761967,27.380785 24.0371347,27.1345149 24.2318735,27.0299434 L28.4952326,24.5553787 C28.6827508,24.4412508 28.9267215,24.5036422 29.0420331,24.6963085 C29.1447633,24.8863385 29.0795586,25.1327185 28.8905088,25.2442102 L24.6299942,27.7172371 C24.5720101,27.7519478 24.5039609,27.7728181 24.4356929,27.7741363"
                          id="Fill-27"></path>
                    <path d="M42.0946797,24.191246 C41.9594565,24.1938822 41.8254368,24.1221541 41.7503857,23.9918792 C41.635074,23.7980046 41.696012,23.5516246 41.8908603,23.4470531 L46.15411,20.9724884 C46.3417376,20.8583605 46.5857082,20.9207519 46.7009105,21.1134182 C46.8037501,21.3034482 46.7385454,21.5498282 46.5494955,21.6613199 L42.2889809,24.1343468 C42.2309969,24.1690575 42.1629477,24.1899278 42.0946797,24.191246"
                          id="Fill-28"></path>
                    <path d="M42.0308972,11.0216142 L35.4697288,14.8232038 L35.4697288,22.4318752 L42.0308972,26.2348928 L48.6005991,22.4318752 L48.6005991,14.8232038 L42.0308972,11.0216142 Z M42.0308972,11.9404589 L47.8067647,15.2838894 L47.8067647,21.972398 L42.0308972,25.311874 L36.2648761,21.972398 L36.2648761,15.2838894 L42.0308972,11.9404589 Z"
                          id="Fill-29"></path>
                    <path d="M37.6343936,21.6743913 C37.4139448,21.6743913 37.2339755,21.497872 37.2339755,21.2765365 L37.2339755,16.3333386 C37.2339755,16.1106849 37.4139448,15.9355936 37.6343936,15.9355936 C37.8449961,15.9355936 38.030545,16.1106849 38.030545,16.3333386 L38.030545,21.2765365 C38.030545,21.497872 37.8449961,21.6743913 37.6343936,21.6743913"
                          id="Fill-30"></path>
                    <path d="M35.8171955,0.304688162 L29.2461807,4.1105617 L29.2461807,11.7206611 L35.8171955,15.5196145 L42.3756288,11.7206611 L42.3756288,4.1105617 L35.8171955,0.304688162 Z M35.8171955,1.22638883 L41.5832166,4.57135712 L41.5832166,11.2542637 L35.8171955,14.6019781 L30.0469076,11.2542637 L30.0469076,4.57135712 L35.8171955,1.22638883 Z"
                          id="Fill-31"></path>
                    <path d="M31.4341486,10.631009 C31.2166537,10.631009 31.0365749,10.4517437 31.0365749,10.2304081 L31.0365749,5.28435427 C31.0365749,5.0673026 31.2166537,4.88518131 31.4341486,4.88518131 C31.6545973,4.88518131 31.8331444,5.0673026 31.8331444,5.28435427 L31.8331444,10.2304081 C31.8331444,10.4517437 31.6545973,10.631009 31.4341486,10.631009"
                          id="Fill-32"></path>
                    <path d="M24.4163284,14.5782518 L17.8495804,18.3840155 L17.8495804,25.9913688 L24.4163284,29.7958144 L30.9706044,25.9913688 L30.9706044,18.3840155 L24.4163284,14.5782518 Z M24.4163284,15.4999524 L30.1851941,18.8433829 L30.1851941,25.5262895 L24.4163284,28.8811437 L18.64615,25.5262895 L18.64615,18.8433829 L24.4163284,15.4999524 Z"
                          id="Fill-33"></path>
                    <path d="M19.9824087,24.9017167 C19.7675395,24.9017167 19.5819906,24.7265156 19.5819906,24.50518 L19.5819906,19.557808 C19.5819906,19.3392185 19.7675395,19.1613812 19.9824087,19.1613812 C20.200013,19.1613812 20.3814046,19.3392185 20.3814046,19.557808 L20.3814046,24.50518 C20.3814046,24.7265156 20.200013,24.9017167 19.9824087,24.9017167"
                          id="Fill-34"></path>
                    <polyline id="Fill-35" points="24.2071483 15.3332093 18.5358709 11.8972902 18.9504021 11.2121934 24.6200384 14.6525063 24.2071483 15.3332093"></polyline>
                    <polyline id="Fill-36" points="24.5593193 15.438989 23.900161 14.9144841 29.5671717 11.4755993 29.9759045 12.1605862 24.5593193 15.438989"></polyline>
                    <path d="M13.1266157,13.4953002 C12.9913926,13.4979364 12.8574822,13.4262083 12.7823218,13.2959334 C12.6671195,13.1019489 12.7280575,12.8556788 12.9227963,12.7511073 L17.1861554,10.2765426 C17.3736736,10.1624147 17.6176443,10.2248061 17.7329559,10.4174724 C17.8356862,10.6075024 17.7704815,10.8538824 17.5814316,10.9653741 L13.320917,13.438401 C13.2629329,13.4731117 13.1948837,13.493982 13.1266157,13.4953002"
                          id="Fill-37"></path>
                    <path d="M35.8497978,13.4953002 C35.7144652,13.4979364 35.5805549,13.4262083 35.5055039,13.2959334 C35.3901922,13.1019489 35.4511302,12.8556788 35.645869,12.7511073 L39.9092281,10.2765426 C40.0968557,10.1624147 40.3407169,10.2248061 40.4560286,10.4174724 C40.5587588,10.6075024 40.4935541,10.8538824 40.3045043,10.9653741 L36.0439897,13.438401 C35.986115,13.4731117 35.9180658,13.493982 35.8497978,13.4953002"
                          id="Fill-38"></path>
                </g>
            </g>
        </g>
    </g>
</svg>