<svg width="19px" height="18px" viewBox="0 0 19 18" version="1.1" xmlns="http://www.w3.org/2000/svg" xmlns:xlink="http://www.w3.org/1999/xlink">
    <!-- Generator: Sketch 51.2 (57519) - http://www.bohemiancoding.com/sketch -->
    <desc>Created with Sketch.</desc>
    <defs></defs>
    <g id="home" stroke="none" stroke-width="1" fill="none" fill-rule="evenodd" opacity="0.791360294">
        <g id="01MainPage" transform="translate(-981.000000, -735.000000)" fill="#0A0B09" stroke="#000000" stroke-width="0.2">
            <g id="Content" transform="translate(0.000000, -5.000000)">
                <g id="Header">
                    <g id="Footer" transform="translate(0.000000, 705.000000)">
                        <g id="Follow" transform="translate(662.000000, 0.000000)">
                            <g id="Linkedin" transform="translate(320.000000, 36.000000)">
                                <path d="M2.47801365,3.65046771 C2.97360186,3.67653222 3.43822715,3.49401953 3.77896446,3.20718768 C4.15066469,2.92035583 4.33651481,2.50317087 4.33651481,2.08598591 C4.33651481,1.6687704 4.15066469,1.27764995 3.77896446,0.964753589 C3.43822715,0.677952297 2.97360186,0.521504117 2.50897657,0.521504117 C1.98238914,0.521504117 1.51776385,0.677952297 1.17706283,0.964753589 C0.805362603,1.27764995 0.619512487,1.6687704 0.619512487,2.08598591 C0.619512487,2.50317087 0.805362603,2.92035583 1.17706283,3.20718768 C1.51776385,3.49401953 2.01338836,3.65046771 2.47801365,3.65046771 Z M2.53993949,4.17194127 C2.50897657,4.17194127 2.47801365,4.17194127 2.47801365,4.17194127 C1.85850116,4.19803634 1.20802575,3.96336407 0.743400464,3.57224362 C0.278775174,3.18112317 0,2.65961905 0,2.08598591 C0,1.53841728 0.247812254,1.01691317 0.743400464,0.599728207 C1.20802575,0.208607758 1.82753824,0 2.50897657,0 C3.15945197,0 3.77896446,0.208607758 4.24358975,0.625792718 C4.70821504,1.01691317 4.98699021,1.53841728 4.955991,2.08598591 C4.955991,2.65961905 4.67721582,3.18112317 4.21259053,3.57224362 C3.74796524,3.96336407 3.15945197,4.17194127 2.53993949,4.17194127 Z"
                                      id="Fill-1"></path>
                                <path d="M1.44197212,5.41252334 C1.3154745,5.41252334 1.21429418,5.54823901 1.21429418,5.6839865 L1.21429418,15.1855787 C1.21429418,15.3212944 1.34079181,15.4570419 1.46725979,15.4570419 L3.49107355,15.4570419 C3.61757117,15.4570419 3.74403915,15.348463 3.74403915,15.2127155 L3.74403915,5.6839865 C3.74403915,5.54823901 3.61757117,5.41252334 3.49107355,5.41252334 L1.44197212,5.41252334 Z M3.49107355,16 L1.46725979,16 C1.06250889,16 0.708333333,15.6199261 0.708333333,15.1855787 L0.708333333,5.6839865 C0.708333333,5.2224705 1.03722123,4.86956522 1.44197212,4.86956522 L3.49107355,4.86956522 C3.89582444,4.86956522 4.25,5.24963909 4.25,5.6839865 L4.25,15.2127155 C4.25,15.6199261 3.89582444,16 3.49107355,16 Z"
                                      id="Fill-3"></path>
                                <path d="M13.8469379,15.436842 L16.4435791,15.436842 L16.470065,15.4086957 L16.470065,8.17224573 C16.470065,6.25753494 15.0922712,4.73703804 13.3170339,4.73703804 L12.760613,4.73703804 C11.7802316,4.73703804 10.8528842,5.24387034 10.3229491,6.03229814 L9.58106496,6.82069293 L9.58106496,5.04677989 L9.55454802,5.01863354 L6.9314209,5.01863354 L6.9314209,15.436842 L9.84601694,15.436842 L9.84601694,9.41118012 C9.84601694,8.17224573 10.7203927,7.21490683 11.8332345,7.18672748 C12.3896554,7.18672748 12.9195904,7.41199728 13.3170339,7.83435753 C13.6614746,8.20039208 13.820452,8.70722438 13.820452,9.38300078 L13.8469379,15.436842 C13.820452,15.4086957 13.8469379,15.436842 13.8469379,15.436842 Z M16.470065,16 L13.820452,16 C13.5555,16 13.290517,15.7184045 13.290517,15.436842 L13.290517,9.38300078 C13.290517,8.87616848 13.1845424,8.48198758 12.9195904,8.22857143 C12.6281215,7.91882958 12.230678,7.74988548 11.8067486,7.74988548 C10.9853446,7.74988548 10.349435,8.48198758 10.349435,9.41118012 L10.349435,15.4931677 C10.349435,15.8028766 10.0579972,16 9.81953106,16 L6.90493502,16 C6.66646892,16 6.375,15.8028766 6.375,15.4931677 L6.375,4.99045419 C6.375,4.68074534 6.66646892,4.45547554 6.90493502,4.45547554 L9.55454802,4.45547554 C9.81953106,4.45547554 10.084483,4.73703804 10.084483,5.01863354 L10.084483,5.41281444 C10.7203927,4.65256599 11.7007429,4.17391304 12.734096,4.17391304 L13.290517,4.17391304 C15.3837401,4.17391304 17,5.91964674 17,8.17224573 L17,15.436842 C17,15.7184045 16.735048,16 16.470065,16 Z"
                                      id="Fill-4"></path>
                            </g>
                        </g>
                    </g>
                </g>
            </g>
        </g>
    </g>
</svg>