<svg width="1192px" height="137px" viewBox="0 0 1192 137" version="1.1" xmlns="http://www.w3.org/2000/svg" xmlns:xlink="http://www.w3.org/1999/xlink">
    <!-- Generator: Sketch 51.2 (57519) - http://www.bohemiancoding.com/sketch -->
    <desc>Created with Sketch.</desc>
    <defs></defs>
    <g id="Symbols" stroke="none" stroke-width="1" fill="none" fill-rule="evenodd">
        <g id="Logo" transform="translate(0.000000, 1.000000)" fill="#05ACFF">
            <g id="Group-3" stroke="#05ACFF" stroke-width="0.4">
                <path d="M59.3265861,0.157788945 L29.2111758,17.5688442 L29.2111758,52.3834171 L59.3265861,69.7628141 L89.4354725,52.3834171 L89.4354725,17.5688442 L59.3265861,0.157788945 Z M59.3265861,4.37437186 L85.794685,19.6768844 L85.794685,50.2497487 L59.3265861,65.5648241 L32.8584872,50.2497487 L32.8584872,19.6768844 L59.3265861,4.37437186 Z"
                      id="Fill-17"></path>
                <path d="M39.2483077,47.6396985 C38.249663,47.6396985 37.4241502,46.819598 37.4241502,45.8070352 L37.4241502,23.1798995 C37.4241502,22.1869347 38.249663,21.3532663 39.2483077,21.3532663 C40.2594982,21.3532663 41.0528938,22.1869347 41.0528938,23.1798995 L41.0528938,45.8070352 C41.0528938,46.819598 40.2594982,47.6396985 39.2483077,47.6396985"
                      id="Fill-18"></path>
                <path d="M79.9087033,25.2246231 C79.575989,25.2281407 79.2809121,25.160804 78.9592381,24.9909548 L58.4383443,13.118593 C57.6068095,12.6025126 57.2816227,11.4974874 57.8030256,10.639196 C58.2928132,9.75577889 59.4159121,9.46130653 60.2725385,9.96532663 L80.7803846,21.8306533 C81.6560806,22.3341709 81.949652,23.439196 81.4538425,24.3160804 C81.1211282,24.8969849 80.5294689,25.2175879 79.9087033,25.2246231"
                      id="Fill-19"></path>
                <path d="M51.3840989,74.2768844 C51.0513846,74.280402 50.7563077,74.2125628 50.4346337,74.0432161 L29.9137399,62.1708543 C29.0822051,61.6547739 28.7565165,60.5497487 29.2779194,59.6914573 C29.767707,58.8080402 30.8908059,58.5135678 31.7479341,59.0170854 L52.2557802,70.8829146 C53.1314762,71.3864322 53.4245458,72.4914573 52.9292381,73.3683417 C52.596022,73.9492462 52.0043626,74.2698492 51.3840989,74.2768844"
                      id="Fill-20"></path>
                <path d="M131.663088,90.5472362 C131.329872,90.5507538 131.035297,90.4834171 130.713121,90.3135678 L110.192227,78.441206 C109.361194,77.9251256 109.035505,76.8201005 109.556908,75.961809 C110.046696,75.078392 111.169795,74.7839196 112.026923,75.2874372 L132.534267,87.1532663 C133.410465,87.6567839 133.703535,88.761809 133.208227,89.6386935 C132.875011,90.219598 132.283352,90.540201 131.663088,90.5472362"
                      id="Fill-21"></path>
                <path d="M212.603491,74.2165829 C212.270777,74.2201005 211.9757,74.1527638 211.654026,73.9829146 L191.133132,62.1105528 C190.301597,61.5944724 189.97641,60.4894472 190.497813,59.6311558 C190.987601,58.7477387 192.1107,58.4532663 192.967326,58.9567839 L213.475172,70.8226131 C214.350868,71.3261307 214.64444,72.4311558 214.14863,73.3080402 C213.815916,73.8889447 213.224256,74.2095477 212.603491,74.2165829"
                      id="Fill-22"></path>
                <path d="M184.139106,25.2246231 C183.806392,25.2281407 183.511315,25.160804 183.189641,24.9909548 L162.668747,13.118593 C161.837212,12.6025126 161.511524,11.4974874 162.032927,10.639196 C162.522714,9.75577889 163.645813,9.46130653 164.502941,9.96532663 L185.010788,21.8306533 C185.886484,22.3341709 186.179553,23.439196 185.684245,24.3160804 C185.351029,24.8969849 184.75937,25.2175879 184.139106,25.2246231"
                      id="Fill-23"></path>
                <path d="M30.7824103,49.1251256 L0.718186813,66.5165829 L0.718186813,101.324623 L30.7824103,118.722613 L60.8912967,101.324623 L60.8912967,66.5165829 L30.7824103,49.1251256 Z M30.7824103,53.3286432 L57.2500073,68.6241206 L57.2500073,99.2226131 L30.7824103,114.5 L4.31431136,99.2226131 L4.31431136,68.6241206 L30.7824103,53.3286432 Z"
                      id="Fill-24"></path>
                <path d="M10.6087839,95.9778894 C9.58504762,95.9778894 8.77810256,95.1899497 8.77810256,94.1834171 L8.77810256,71.5502513 C8.77810256,70.5251256 9.58504762,69.7241206 10.6087839,69.7241206 C11.588359,69.7241206 12.3877766,70.5251256 12.3877766,71.5502513 L12.3877766,94.1834171 C12.3877766,95.1899497 11.588359,95.9778894 10.6087839,95.9778894"
                      id="Fill-25"></path>
                <path d="M30.8832784,109.554271 C30.2625128,109.566332 29.6482711,109.238191 29.3040147,108.642211 C28.7750842,107.754774 29.0546044,106.628141 29.9478645,106.149749 L49.5037363,94.8291457 C50.3643773,94.3070352 51.4834615,94.5924623 52.0118901,95.4738693 C52.4831099,96.3427136 52.1845201,97.4703518 51.3168535,97.980402 L31.7740293,109.29397 C31.5085604,109.452764 31.1964212,109.548241 30.8832784,109.554271"
                      id="Fill-26"></path>
                <path d="M111.282205,125.824623 C110.661941,125.836683 110.0477,125.508543 109.702941,124.912563 C109.174513,124.025126 109.454033,122.898492 110.347293,122.420101 L129.903165,111.099497 C130.763304,110.577387 131.882388,110.862814 132.411319,111.744221 C132.882538,112.613568 132.583447,113.740704 131.716282,114.250754 L112.173458,125.564322 C111.907487,125.723116 111.595348,125.818593 111.282205,125.824623"
                      id="Fill-27"></path>
                <path d="M192.28333,109.433668 C191.663066,109.445729 191.048322,109.117588 190.704066,108.521608 C190.175136,107.634673 190.454656,106.507538 191.348418,106.029146 L210.903788,94.7085427 C211.764429,94.1864322 212.883513,94.4718593 213.411941,95.3532663 C213.883663,96.2226131 213.584571,97.3497487 212.717407,97.859799 L193.174582,109.173367 C192.908612,109.332161 192.596473,109.427638 192.28333,109.433668"
                      id="Fill-28"></path>
                <path d="M191.990762,49.1854271 L161.894923,66.5768844 L161.894923,101.384925 L191.990762,118.782915 L222.125744,101.384925 L222.125744,66.5768844 L191.990762,49.1854271 Z M191.990762,53.3889447 L218.484454,68.6844221 L218.484454,99.2829146 L191.990762,114.560302 L165.542234,99.2829146 L165.542234,68.6844221 L191.990762,53.3889447 Z"
                      id="Fill-29"></path>
                <path d="M171.824161,97.919598 C170.812971,97.919598 169.987458,97.1120603 169.987458,96.0994975 L169.987458,73.4854271 C169.987458,72.4668342 170.812971,71.6658291 171.824161,71.6658291 C172.790187,71.6658291 173.641293,72.4668342 173.641293,73.4854271 L173.641293,96.0994975 C173.641293,97.1120603 172.790187,97.919598 171.824161,97.919598"
                      id="Fill-30"></path>
                <path d="M163.48874,0.157788945 L133.347736,17.5688442 L133.347736,52.3834171 L163.48874,69.7628141 L193.572033,52.3834171 L193.572033,17.5688442 L163.48874,0.157788945 Z M163.48874,4.37437186 L189.937267,19.6768844 L189.937267,50.2497487 L163.48874,65.5648241 L137.020641,50.2497487 L137.020641,19.6768844 L163.48874,4.37437186 Z"
                      id="Fill-31"></path>
                <path d="M143.383864,47.3984925 C142.386223,47.3984925 141.560209,46.578392 141.560209,45.5658291 L141.560209,22.9386935 C141.560209,21.9457286 142.386223,21.1125628 143.383864,21.1125628 C144.395055,21.1125628 145.214044,21.9457286 145.214044,22.9386935 L145.214044,45.5658291 C145.214044,46.578392 144.395055,47.3984925 143.383864,47.3984925"
                      id="Fill-32"></path>
                <path d="M111.193381,65.4562814 L81.0719487,82.8668342 L81.0719487,117.668844 L111.193381,135.073367 L141.257604,117.668844 L141.257604,82.8668342 L111.193381,65.4562814 Z M111.193381,69.6728643 L137.654956,84.9683417 L137.654956,115.541206 L111.193381,130.888945 L84.7257839,115.541206 L84.7257839,84.9683417 L111.193381,69.6728643 Z"
                      id="Fill-33"></path>
                <path d="M90.8551538,112.68392 C89.8695568,112.68392 89.0184505,111.882412 89.0184505,110.869849 L89.0184505,88.2366834 C89.0184505,87.2366834 89.8695568,86.4231156 90.8551538,86.4231156 C91.8532967,86.4231156 92.6853333,87.2366834 92.6853333,88.2366834 L92.6853333,110.869849 C92.6853333,111.882412 91.8532967,112.68392 90.8551538,112.68392"
                      id="Fill-34"></path>
                <polyline id="Fill-35" points="110.233879 68.9100503 84.2199377 53.1914573 86.1213773 50.0572864 112.127791 65.7959799 110.233879 68.9100503"></polyline>
                <polyline id="Fill-36" points="111.849275 69.3939698 108.82574 66.9944724 134.82011 51.2623116 136.694952 54.3959799 111.849275 69.3939698"></polyline>
                <path d="M59.4078828,60.5020101 C58.787619,60.5140704 58.1733773,60.1859296 57.828619,59.5899497 C57.3001905,58.7025126 57.5797106,57.5758794 58.4729707,57.0974874 L78.0288425,45.7768844 C78.8889817,45.2547739 80.0080659,45.540201 80.5369963,46.421608 C81.0082161,47.2909548 80.7091245,48.4180905 79.8419597,48.9281407 L60.2991355,60.2417085 C60.0331648,60.4005025 59.7210256,60.4959799 59.4078828,60.5020101"
                      id="Fill-37"></path>
                <path d="M163.638286,60.5020101 C163.01752,60.5140704 162.403278,60.1859296 162.059022,59.5899497 C161.530092,58.7025126 161.809612,57.5758794 162.702872,57.0974874 L182.258744,45.7768844 C183.119385,45.2547739 184.237967,45.540201 184.766897,46.421608 C185.238117,47.2909548 184.939026,48.4180905 184.071861,48.9281407 L164.529037,60.2417085 C164.263568,60.4005025 163.951429,60.4959799 163.638286,60.5020101"
                      id="Fill-38"></path>
            </g>
            <g id="Group-8" transform="translate(293.000000, 41.000000)">
                <polyline id="Fill-1"
                          points="49.853922 51.0897822 49.853922 10.8714405 35.1847439 10.8714405 35.1847439 51.0897822 25.1814857 51.0897822 25.1814857 10.8714405 9.92097656 10.8714405 9.92097656 51.0897822 0 51.0897822 0 0.941792295 59.8560832 0.941792295 59.8560832 51.0897822 49.853922 51.0897822"></polyline>
                <path d="M79.8636968,41.160134 L119.796642,41.160134 L119.796642,10.8714405 L79.8636968,10.8714405 L79.8636968,41.160134 Z M129.802095,51.0059464 L129.715425,51.0059464 L129.715425,51.1725293 L69.8593414,51.0059464 L69.8593414,0.941792295 L129.715425,0.941792295 L129.802095,51.0059464 Z"
                      id="Fill-3"></path>
                <path d="M149.725232,20.9676717 L189.658178,20.9676717 L189.658178,10.8714405 L149.725232,10.8714405 L149.725232,20.9676717 Z M199.57696,30.980067 L191.523229,30.980067 L199.57696,51.0059464 L189.573702,51.0059464 L181.0943,30.980067 L149.725232,30.8962312 L149.725232,51.1725293 L139.720877,51.0059464 L139.720877,0.941792295 L199.57696,0.941792295 L199.57696,30.980067 Z"
                      id="Fill-4"></path>
                <path d="M219.584574,20.9676717 L259.517519,20.9676717 L259.517519,10.8714405 L219.584574,10.8714405 L219.584574,20.9676717 Z M269.436302,30.980067 L219.584574,30.8962312 L219.584574,51.1725293 L209.580218,51.0059464 L209.580218,0.941792295 L269.436302,0.941792295 L269.436302,30.980067 Z"
                      id="Fill-5"></path>
                <polyline id="Fill-6"
                          points="329.376861 0.941792295 339.295643 0.941792295 339.295643 51.0059464 329.292385 51.0059464 329.292385 30.8962312 289.443915 30.8962312 289.443915 51.0059464 279.438463 51.0059464 279.438463 0.941792295 289.359439 0.941792295 289.443915 20.9676717 329.292385 20.9676717 329.376861 0.941792295"></polyline>
                <polyline id="Fill-7"
                          points="409.156082 10.8714405 359.305451 10.8714405 359.305451 20.9676717 409.156082 20.9676717 409.156082 30.980067 359.305451 30.8962312 359.305451 41.160134 409.156082 41.160134 409.156082 51.1725293 349.299998 51.0059464 349.299998 0.941792295 409.156082 0.941792295 409.156082 10.8714405"></polyline>
                <polyline id="Fill-9" points="429.029509 1 429.029509 41.9016479 469.058469 41.9016479 469.058469 1 479 1 479 52 419 52 419 1 429.029509 1"></polyline>
                <polyline id="Fill-16"
                          points="839.08456 52 839.08456 41.9016479 888.98792 41.9016479 888.98792 31.4633622 839 31.4633622 839.08456 1 899 1 899 11.0983521 849.099934 11.0983521 849.099934 21.3661174 899 21.3661174 899 51.9147398 839.08456 52"></polyline>
                <polyline id="Fill-10"
                          points="489.813939 51.0897822 489.813939 41.160134 539.66164 41.160134 539.66164 30.8962312 489.729473 30.8962312 489.813939 0.941792295 549.662553 0.941792295 549.662553 10.8714405 499.817046 10.8714405 499.817046 20.9676717 549.662553 20.9676717 549.662553 51.0059464 489.813939 51.0897822"></polyline>
                <polyline id="Fill-12"
                          points="639.520489 0.941792295 639.520489 41.160134 689.365997 41.160134 689.365997 51.1725293 629.517382 51.0059464 629.517382 0.941792295 639.520489 0.941792295"></polyline>
                <polyline id="Fill-13"
                          points="699.36691 0.941792295 759.216622 0.941792295 759.216622 51.0059464 749.214611 51.0059464 749.214611 30.8962312 709.371114 30.8962312 709.371114 51.0059464 699.36691 51.0059464 699.36691 20.9676717 749.214611 20.9676717 749.214611 10.8714405 699.36691 10.8714405 699.36691 0.941792295"></polyline>
                <polyline id="Fill-14"
                          points="769.217535 0.941792295 829.067246 0.941792295 829.067246 51.0059464 769.217535 51.1725293 769.217535 41.160134 819.065236 41.160134 819.065236 30.8962312 769.217535 30.980067 769.217535 20.9676717 819.065236 20.9676717 819.065236 10.8714405 769.217535 10.8714405 769.217535 0.941792295"></polyline>
            </g>
        </g>
    </g>
</svg>