<svg width="18px" height="13px" viewBox="0 0 18 13" version="1.1" xmlns="http://www.w3.org/2000/svg" xmlns:xlink="http://www.w3.org/1999/xlink">
    <!-- Generator: Sketch 51.2 (57519) - http://www.bohemiancoding.com/sketch -->
    <desc>Created with Sketch.</desc>
    <defs>
        <polygon id="path-1" points="0.00279069767 0.0334915254 17.9833123 0.0334915254 17.9833123 12.9999119 0.00279069767 12.9999119"></polygon>
    </defs>
    <g id="home" stroke="none" stroke-width="1" fill="none" fill-rule="evenodd" opacity="0.674115349">
        <g id="01MainPage" transform="translate(-813.000000, -739.000000)">
            <g id="Content" transform="translate(0.000000, -5.000000)">
                <g id="Header">
                    <g id="Footer" transform="translate(0.000000, 705.000000)">
                        <g id="Follow" transform="translate(662.000000, 0.000000)">
                            <g id="Email" transform="translate(151.000000, 39.000000)">
                                <g id="Group-3">
                                    <mask id="mask-2" fill="white">
                                        <use xlink:href="#path-1"></use>
                                    </mask>
                                    <g id="Clip-2"></g>
                                    <path d="M15.7879535,0.0334915254 L2.19911628,0.0334915254 C0.986,0.0334915254 0,0.967684746 0,2.11706102 L0,10.9165186 C0,12.0657186 0.986,12.9999119 2.19911628,12.9999119 L15.7841395,12.9999119 C16.9972558,12.9999119 17.9833023,12.0657186 17.9833023,10.9165186 L17.9833023,2.12049831 C17.9869302,0.971298305 17.0009302,0.0334915254 15.7879535,0.0334915254 Z M16.9823721,10.9165186 C16.9823721,11.5405186 16.4466047,12.0481797 15.7879535,12.0481797 L2.19911628,12.0481797 C1.54051163,12.0481797 1.00474419,11.5405186 1.00474419,10.9165186 L1.00474419,2.12049831 C1.00474419,1.49649831 1.54051163,0.988881356 2.19911628,0.988881356 L15.7841395,0.988881356 C16.4427907,0.988881356 16.9785581,1.49649831 16.9785581,2.12049831 L16.9785581,10.9165186 L16.9823721,10.9165186 Z"
                                          id="Fill-1" fill="#000000" mask="url(#mask-2)"></path>
                                </g>
                                <path d="M11.3199939,6.39368926 L15.6673072,2.8444563 C15.8697356,2.67704163 15.8880337,2.39239483 15.7041333,2.20489039 C15.5202329,2.0207761 15.2075563,2.00411834 15.0017717,2.17153302 L9.00652701,7.07004455 L7.83682857,6.11900364 C7.83324251,6.11573905 7.82965646,6.11247446 7.82965646,6.10904246 C7.80377248,6.08564626 7.77811837,6.0655565 7.74864833,6.04542489 L2.98935218,2.16810102 C2.78333776,2.00068634 2.47066112,2.0173441 2.28676073,2.20489039 C2.10286034,2.39239483 2.1213883,2.67704163 2.32717284,2.8444563 L6.72625411,6.4237402 L2.34570081,10.1570874 C2.14704241,10.3279341 2.13591643,10.6125391 2.32358678,10.7966534 C2.42289299,10.8903219 2.5552553,10.9406718 2.68761761,10.9406718 C2.80903784,10.9406718 2.9304121,10.9004505 3.02613225,10.8200077 L7.47279775,7.03325518 L8.67909236,8.01417961 C8.77481252,8.09119036 8.89246279,8.12797974 9.01029697,8.12797974 C9.12790127,8.12797974 9.2493215,8.08792577 9.3412717,8.01091502 L10.5808063,6.99973039 L15.0017717,10.8234397 C15.097308,10.907147 15.2223143,10.9473684 15.3436885,10.9473684 C15.4760508,10.9473684 15.6048271,10.9004505 15.7041333,10.8066145 C15.8918036,10.6259741 15.8844476,10.3378953 15.6858352,10.167216 L11.3199939,6.39368926 Z"
                                      id="Fill-4" fill="#000000"></path>
                            </g>
                        </g>
                    </g>
                </g>
            </g>
        </g>
    </g>
</svg>