<svg width="69px" height="51px" viewBox="0 0 69 51" version="1.1" xmlns="http://www.w3.org/2000/svg" xmlns:xlink="http://www.w3.org/1999/xlink">
    <!-- Generator: Sketch 51.2 (57519) - http://www.bohemiancoding.com/sketch -->
    <desc>Created with Sketch.</desc>
    <defs></defs>
    <g id="home" stroke="none" stroke-width="1" fill="none" fill-rule="evenodd">
        <g id="01MainPage" transform="translate(-868.000000, -480.000000)">
            <g id="cell04-copy" transform="translate(832.000000, 481.000000)">
                <g id="Group" transform="translate(37.000000, 0.000000)">
                    <path d="M27.5714286,47.3333333 L40.4285714,47.3333333 L40.4285714,44.6666667 L27.5714286,44.6666667 L27.5714286,47.3333333 Z M41.8749485,50 L26.1250515,50 C25.5032822,50 25,49.4037109 25,48.6666016 L25,43.3333984 C25,42.5962891 25.5032822,42 26.1250515,42 L41.8749485,42 C42.4968826,42 43,42.5962891 43,43.3333984 L43,48.6666016 C43,49.4037109 42.4968826,50 41.8749485,50 Z"
                          id="Fill-7" fill="#05ACFF"></path>
                    <path d="M46.9231801,50 L21.0769777,50 C20.481619,50 20,49.3291584 20,48.4998901 C20,47.6708416 20.481619,47 21.0769777,47 L46.9231801,47 C47.518381,47 48,47.6708416 48,48.4998901 C48,49.3291584 47.518381,50 46.9231801,50"
                          id="Fill-8" fill="#05ACFF"></path>
                    <rect id="Rectangle" fill="#FFFFFF" x="2" y="3" width="64" height="40"></rect>
                    <g id="Group-6" fill="#05ACFF" stroke="#05ACFF">
                        <path d="M2.16123926,36.2159829 L64.8387607,36.2159829 L64.8387607,2.26360254 L2.16123926,2.26360254 L2.16123926,36.2159829 Z M65.9194595,38.4794196 L1.08069878,38.4794196 C0.483283048,38.4794196 0,37.9732838 0,37.3476184 L0,1.13180127 C0,0.506301609 0.483283048,0 1.08069878,0 L65.9194595,0 C66.516717,0 67,0.506301609 67,1.13180127 L67,37.3476184 C67,37.9732838 66.516717,38.4794196 65.9194595,38.4794196 Z"
                              id="Fill-1" stroke-width="0.5"></path>
                        <path d="M2.16123926,38.5604168 L2.16123926,40.8031512 C2.16123926,41.3661855 2.61618701,41.8241986 3.17545298,41.8241986 L63.824547,41.8241986 C64.383813,41.8241986 64.8387607,41.3661855 64.8387607,40.8031512 L64.8387607,38.5604168 L2.16123926,38.5604168 Z M63.824547,44 L3.17545298,44 C1.4245215,44 0,42.5658803 0,40.8031512 L0,37.4724364 C0,36.8711547 0.483283048,36.3846154 1.08069878,36.3846154 L65.9194595,36.3846154 C66.516717,36.3846154 67,36.8711547 67,37.4724364 L67,40.8031512 C67,42.5658803 65.5754785,44 63.824547,44 Z"
                              id="Fill-5" stroke-width="0.5"></path>
                        <g id="Group-3" transform="translate(15.075000, 9.307692)" stroke-width="0.3">
                            <path d="M9.85842207,0.232031754 L4.92094686,3.13035084 L4.92094686,8.92573424 L9.85842207,11.8187833 L14.7948277,8.92573424 L14.7948277,3.13035084 L9.85842207,0.232031754 Z M9.85842207,0.933942266 L14.1979141,3.48126427 L14.1979141,8.57055464 L9.85842207,11.1199679 L5.51893006,8.57055464 L5.51893006,3.48126427 L9.85842207,0.933942266 Z"
                                  id="Fill-17"></path>
                            <path d="M6.56655253,8.13607446 C6.40282295,8.13607446 6.26747865,7.99955701 6.26747865,7.83100145 L6.26747865,4.06439121 C6.26747865,3.89909802 6.40282295,3.760322 6.56655253,3.760322 C6.73233901,3.760322 6.86241764,3.89909802 6.86241764,4.06439121 L6.86241764,7.83100145 C6.86241764,7.99955701 6.73233901,8.13607446 6.56655253,8.13607446"
                                  id="Fill-18"></path>
                            <path d="M13.2328969,4.40476469 C13.1783478,4.40535024 13.1299694,4.39414109 13.0772304,4.36586725 L9.71279325,2.38954289 C9.57646164,2.30363393 9.52314668,2.1196867 9.60863162,1.97681181 C9.68893316,1.82975441 9.87306723,1.78073527 10.0135127,1.86463662 L13.3758106,3.83978988 C13.5193825,3.92360759 13.5675141,4.10755482 13.4862252,4.25352477 C13.4316761,4.35022463 13.3346725,4.40359358 13.2328969,4.40476469"
                                  id="Fill-19"></path>
                            <path d="M8.55623714,12.5702149 C8.50168804,12.5708005 8.45330965,12.5595076 8.40057062,12.5313175 L5.0361335,10.5549931 C4.89980189,10.4690841 4.84640465,10.2851369 4.93188959,10.142262 C5.01219114,9.99520462 5.1963252,9.94618548 5.3368529,10.0300032 L8.69915084,12.0052401 C8.84272276,12.0890578 8.89077204,12.273005 8.80956546,12.418975 C8.75493409,12.5156748 8.65793048,12.5690438 8.55623714,12.5702149"
                                  id="Fill-20"></path>
                            <path d="M21.7181205,15.2786476 C21.6634892,15.2792331 21.615193,15.268024 21.5623717,15.2397501 L18.1979346,13.2634258 C18.0616853,13.1775168 18.008288,12.9935696 18.093773,12.8506947 C18.1740745,12.7036373 18.3582086,12.6546182 18.4987363,12.7384359 L21.860952,14.7136728 C22.0046062,14.7974905 22.0526554,14.9814377 21.9714489,15.1274076 C21.9168175,15.2241075 21.8198139,15.2774765 21.7181205,15.2786476"
                                  id="Fill-21"></path>
                            <path d="M34.9884439,12.5601769 C34.9338948,12.5607624 34.8855164,12.5495532 34.8327774,12.5212794 L31.4683403,10.544955 C31.3320087,10.4590461 31.2786937,10.2750989 31.3641786,10.132224 C31.4444802,9.98516657 31.6286143,9.93614743 31.7690597,10.0199651 L35.1313576,11.995202 C35.2749295,12.0790197 35.3230611,12.262967 35.2417722,12.4089369 C35.1872231,12.5056368 35.0902195,12.5590057 34.9884439,12.5601769"
                                  id="Fill-22"></path>
                            <path d="M30.3216573,4.40476469 C30.2671082,4.40535024 30.2187298,4.39414109 30.1659908,4.36586725 L26.8015537,2.38954289 C26.665222,2.30363393 26.6118248,2.1196867 26.6973098,1.97681181 C26.7776113,1.82975441 26.9617454,1.78073527 27.1022731,1.86463662 L30.464571,3.83978988 C30.6081429,3.92360759 30.6561922,4.10755482 30.5749856,4.25352477 C30.5203542,4.35022463 30.4233506,4.40359358 30.3216573,4.40476469"
                                  id="Fill-23"></path>
                            <path d="M5.17855355,8.38334505 L0.24947051,11.2784018 L0.24947051,17.0726977 L5.17855355,19.9688419 L10.1149592,17.0726977 L10.1149592,11.2784018 L5.17855355,8.38334505 Z M5.17855355,9.08308065 L9.51796328,11.6292315 L9.51796328,16.7227881 L5.17855355,19.2659276 L0.839061541,16.7227881 L0.839061541,11.6292315 L5.17855355,9.08308065 Z"
                                  id="Fill-24"></path>
                            <path d="M1.87105154,16.1826575 C1.70320815,16.1826575 1.57090807,16.0514936 1.57090807,15.8839419 L1.57090807,12.1163278 C1.57090807,11.945681 1.70320815,11.8123423 1.87105154,11.8123423 C2.03165462,11.8123423 2.16272056,11.945681 2.16272056,12.1163278 L2.16272056,15.8839419 C2.16272056,16.0514936 2.03165462,16.1826575 1.87105154,16.1826575"
                                  id="Fill-25"></path>
                            <path d="M5.19509106,18.4426403 C5.09331544,18.4446479 4.99260941,18.3900242 4.93616795,18.2908148 C4.84944887,18.1430882 4.8952767,17.955544 5.04172828,17.8759089 L8.24794833,15.9914326 C8.38905196,15.9045199 8.57252782,15.9520333 8.65916463,16.0987561 C8.73642195,16.2433876 8.68746763,16.4310991 8.54521213,16.5160043 L5.34113126,18.3993094 C5.29760717,18.4257429 5.24643139,18.4416365 5.19509106,18.4426403"
                                  id="Fill-26"></path>
                            <path d="M18.3766385,21.151073 C18.2749451,21.1530806 18.1742391,21.0984569 18.1177154,20.9992475 C18.0310785,20.8515209 18.0769064,20.6639767 18.223358,20.5843415 L21.429578,18.6998653 C21.5705994,18.6129525 21.7540752,18.660466 21.8407943,18.8071888 C21.9180516,18.951904 21.869015,19.1395318 21.7268418,19.224437 L18.5227609,21.1077421 C18.4791546,21.1341756 18.4279788,21.1500692 18.3766385,21.151073"
                                  id="Fill-27"></path>
                            <path d="M31.6569173,18.4225642 C31.5552239,18.4245718 31.4544356,18.3699481 31.3979941,18.2707388 C31.3112751,18.1230958 31.3571029,17.9354679 31.5036368,17.8558328 L34.7097745,15.9713565 C34.8508782,15.8844438 35.034354,15.9319572 35.1209908,16.07868 C35.1983304,16.2233952 35.1492938,16.411023 35.0071206,16.4959282 L31.8030397,18.3792333 C31.7594334,18.4056668 31.7082576,18.4215604 31.6569173,18.4225642"
                                  id="Fill-28"></path>
                            <path d="M31.6089502,8.39338309 L26.6746838,11.2884398 L26.6746838,17.0827358 L31.6089502,19.9788799 L36.5496342,17.0827358 L36.5496342,11.2884398 L31.6089502,8.39338309 Z M31.6089502,9.09311869 L35.9526383,11.6392696 L35.9526383,16.7328261 L31.6089502,19.2759656 L27.272667,16.7328261 L27.272667,11.6392696 L31.6089502,9.09311869 Z"
                                  id="Fill-29"></path>
                            <path d="M28.3026001,16.5058826 C28.1368136,16.5058826 28.0014693,16.3714564 28.0014693,16.2029008 L28.0014693,12.4384655 C28.0014693,12.2689062 28.1368136,12.1355674 28.3026001,12.1355674 C28.4609817,12.1355674 28.6005221,12.2689062 28.6005221,12.4384655 L28.6005221,16.2029008 C28.6005221,16.3714564 28.4609817,16.5058826 28.3026001,16.5058826"
                                  id="Fill-30"></path>
                            <path d="M26.9359929,0.232031754 L21.9943216,3.13035084 L21.9943216,8.92573424 L26.9359929,11.8187833 L31.8682025,8.92573424 L31.8682025,3.13035084 L26.9359929,0.232031754 Z M26.9359929,0.933942266 L31.2722762,3.48126427 L31.2722762,8.57055464 L26.9359929,11.1199679 L22.5965009,8.57055464 L22.5965009,3.48126427 L26.9359929,0.933942266 Z"
                                  id="Fill-31"></path>
                            <path d="M23.6397627,8.09592227 C23.4761977,8.09592227 23.3407711,7.95940481 23.3407711,7.79084926 L23.3407711,4.02423902 C23.3407711,3.85894583 23.4761977,3.72025346 23.6397627,3.72025346 C23.8055492,3.72025346 23.9398239,3.85894583 23.9398239,4.02423902 L23.9398239,7.79084926 C23.9398239,7.95940481 23.8055492,8.09592227 23.6397627,8.09592227"
                                  id="Fill-32"></path>
                            <path d="M18.3620756,11.1018994 L13.4236131,14.0001348 L13.4236131,19.793427 L18.3620756,22.6906586 L23.2911586,19.793427 L23.2911586,14.0001348 L18.3620756,11.1018994 Z M18.3620756,11.8038099 L22.700498,14.3499608 L22.700498,19.4392512 L18.3620756,21.9941017 L14.0226658,19.4392512 L14.0226658,14.3499608 L18.3620756,11.8038099 Z"
                                  id="Fill-33"></path>
                            <path d="M15.027587,18.963615 C14.8659966,18.963615 14.7264562,18.8301926 14.7264562,18.6616371 L14.7264562,14.894023 C14.7264562,14.7275587 14.8659966,14.5921287 15.027587,14.5921287 C15.1912343,14.5921287 15.3276482,14.7275587 15.3276482,14.894023 L15.3276482,18.6616371 C15.3276482,18.8301926 15.1912343,18.963615 15.027587,18.963615"
                                  id="Fill-34"></path>
                            <polyline id="Fill-35"
                                      points="18.2047635 11.6768286 13.9397315 9.06024409 14.2514759 8.53851654 18.5152738 11.1584471 18.2047635 11.6768286"></polyline>
                            <polyline id="Fill-36" points="18.4696105 11.757384 17.9738966 11.3579533 22.2357199 8.7391102 22.5431037 9.2607541 18.4696105 11.757384"></polyline>
                            <path d="M9.87175081,10.2771901 C9.77005747,10.2791977 9.66935144,10.224574 9.61282771,10.1253646 C9.5261909,9.97763803 9.57201873,9.79009383 9.71847031,9.71045865 L12.9246904,7.82598243 C13.0657117,7.73906966 13.2491876,7.78658309 13.3359067,7.93330589 C13.413164,8.07802108 13.3641274,8.26564893 13.2219542,8.35055409 L10.0178733,10.2338592 C9.97426692,10.2602927 9.92309114,10.2761863 9.87175081,10.2771901"
                                  id="Fill-37"></path>
                            <path d="M26.9605112,10.2771901 C26.8587356,10.2791977 26.7580296,10.224574 26.7015881,10.1253646 C26.614869,9.97763803 26.6606969,9.79009383 26.8071484,9.71045865 L30.0133685,7.82598243 C30.1544721,7.73906966 30.3378657,7.78658309 30.4245848,7.93330589 C30.5018421,8.07802108 30.4528055,8.26564893 30.3106323,8.35055409 L27.1065514,10.2338592 C27.0630273,10.2602927 27.0118516,10.2761863 26.9605112,10.2771901"
                                  id="Fill-38"></path>
                        </g>
                    </g>
                </g>
            </g>
        </g>
    </g>
</svg>