<svg width="68px" height="68px" viewBox="0 0 68 68" version="1.1" xmlns="http://www.w3.org/2000/svg" xmlns:xlink="http://www.w3.org/1999/xlink">
    <!-- Generator: Sketch 51.2 (57519) - http://www.bohemiancoding.com/sketch -->
    <desc>Created with Sketch.</desc>
    <defs></defs>
    <g id="home" stroke="none" stroke-width="1" fill="none" fill-rule="evenodd">
        <g id="01MainPage" transform="translate(-280.000000, -468.000000)" stroke="#05ACFF">
            <g id="cell02" transform="translate(248.000000, 470.000000)">
                <g id="Mitx-coin" transform="translate(34.000000, 0.000000)">
                    <circle id="Oval" cx="32" cy="32" r="27"></circle>
                    <circle id="Oval" stroke-width="3" cx="32" cy="32" r="32"></circle>
                    <g id="Group-3" transform="translate(12.000000, 20.000000)" fill="#05ACFF" stroke-width="0.3">
                        <path d="M10.968665,0.253906802 L5.47513762,3.42546809 L5.47513762,9.76721761 L10.968665,12.9330121 L16.4610023,9.76721761 L16.4610023,3.42546809 L10.968665,0.253906802 Z M10.968665,1.0219907 L15.7968651,3.80946426 L15.7968651,9.37855306 L10.968665,12.168315 L6.14046493,9.37855306 L6.14046493,3.80946426 L10.968665,1.0219907 Z"
                              id="Fill-17"></path>
                        <path d="M7.3060693,8.90311178 C7.12390071,8.90311178 6.97331411,8.753724 6.97331411,8.56927768 L6.97331411,4.44756614 C6.97331411,4.26668975 7.12390071,4.11483047 7.3060693,4.11483047 C7.49052644,4.11483047 7.63525436,4.26668975 7.63525436,4.44756614 L7.63525436,8.56927768 C7.63525436,8.753724 7.49052644,8.90311178 7.3060693,8.90311178"
                              id="Fill-18"></path>
                        <path d="M14.7231689,4.8200287 C14.6624765,4.82066946 14.6086498,4.80840355 14.5499714,4.77746417 L10.8066356,2.61481966 C10.6549505,2.52081154 10.5956313,2.31952248 10.6907435,2.16317791 C10.7800885,2.00225651 10.9849595,1.94861604 11.1412217,2.04042728 L14.8821773,4.20179028 C15.0419181,4.29350998 15.0954702,4.49479904 15.0050267,4.65453047 C14.9443343,4.76034682 14.8364063,4.81874719 14.7231689,4.8200287"
                              id="Fill-19"></path>
                        <path d="M9.51982965,13.7552857 C9.4591373,13.7559264 9.4053106,13.743569 9.34663217,13.7127211 L5.60329643,11.5500766 C5.45161133,11.4560685 5.39220056,11.2547794 5.48731271,11.0984349 C5.57665771,10.9375135 5.78152872,10.883873 5.93788247,10.9755927 L9.67883812,13.1370472 C9.83857892,13.2287669 9.89203945,13.430056 9.80168749,13.5897874 C9.7409036,13.6956038 9.63297557,13.7540042 9.51982965,13.7552857"
                              id="Fill-20"></path>
                        <path d="M24.1639876,16.7190588 C24.1032037,16.7196995 24.0494685,16.7074336 23.9906985,16.6764943 L20.2473628,14.5138497 C20.0957692,14.4198416 20.0363585,14.2185526 20.1314706,14.062208 C20.2208156,13.9012866 20.4256866,13.8476461 20.5820404,13.9393658 L24.3229045,16.1008204 C24.4827368,16.1925401 24.5361974,16.3938291 24.4458454,16.5535606 C24.3850615,16.6593769 24.2771335,16.7177773 24.1639876,16.7190588"
                              id="Fill-21"></path>
                        <path d="M38.9287978,13.7443013 C38.8681055,13.744942 38.8142788,13.7326761 38.7556004,13.7017367 L35.0122646,11.5390922 C34.8605795,11.4450841 34.8012603,11.243795 34.8963724,11.0874505 C34.9857174,10.9265291 35.1905884,10.8728886 35.3468507,10.9646083 L39.0878063,13.1260628 C39.2475471,13.2177826 39.3010992,13.4190716 39.2106557,13.578803 C39.1499633,13.6846194 39.0420353,13.7430198 38.9287978,13.7443013"
                              id="Fill-22"></path>
                        <path d="M33.7364437,4.8200287 C33.6757513,4.82066946 33.6219246,4.80840355 33.5632462,4.77746417 L29.8199105,2.61481966 C29.6682253,2.52081154 29.6088146,2.31952248 29.7039267,2.16317791 C29.7932717,2.00225651 29.9981427,1.94861604 30.1544965,2.04042728 L33.8954521,4.20179028 C34.0551929,4.29350998 34.1086535,4.49479904 34.0183015,4.65453047 C33.9575176,4.76034682 33.8495896,4.81874719 33.7364437,4.8200287"
                              id="Fill-23"></path>
                        <path d="M5.76175565,9.17369407 L0.277565561,12.3416854 L0.277565561,18.682245 L5.76175565,21.8514263 L11.254093,18.682245 L11.254093,12.3416854 L5.76175565,9.17369407 Z M5.76175565,9.93939801 L10.5898642,12.7255901 L10.5898642,18.2993472 L5.76175565,21.082244 L0.933555582,18.2993472 L0.933555582,12.7255901 L5.76175565,9.93939801 Z"
                              id="Fill-24"></path>
                        <path d="M2.08176697,17.7082952 C1.89502128,17.7082952 1.74782173,17.5647657 1.74782173,17.3814179 L1.74782173,13.2586079 C1.74782173,13.0718732 1.89502128,12.9259638 2.08176697,12.9259638 C2.26045697,12.9259638 2.40628339,13.0718732 2.40628339,13.2586079 L2.40628339,17.3814179 C2.40628339,17.5647657 2.26045697,17.7082952 2.08176697,17.7082952"
                              id="Fill-25"></path>
                        <path d="M5.78015559,20.1813404 C5.66691813,20.1835373 5.55487071,20.1237639 5.49207289,20.0152014 C5.39558762,19.8535477 5.44657652,19.6483226 5.60952129,19.5611797 L9.17682175,17.4990424 C9.33381629,17.4039359 9.53795497,17.4559287 9.6343487,17.6164839 C9.72030665,17.7747508 9.66583915,17.980159 9.50756302,18.0730687 L5.94264265,20.1339244 C5.89421693,20.16285 5.8372778,20.180242 5.78015559,20.1813404"
                              id="Fill-26"></path>
                        <path d="M20.446192,23.1451135 C20.3330461,23.1473104 20.2209987,23.087537 20.1581093,22.9789746 C20.0617156,22.8173209 20.1127045,22.6120957 20.2756493,22.5249529 L23.8429497,20.4628156 C23.9998527,20.367709 24.2039914,20.4197018 24.3004767,20.5802571 C24.3864346,20.7386154 24.3318756,20.9439321 24.173691,21.0368418 L20.6087706,23.0976976 C20.5602534,23.1266231 20.5033143,23.1440151 20.446192,23.1451135"
                              id="Fill-27"></path>
                        <path d="M35.2220789,20.1593716 C35.108933,20.1615685 34.996794,20.1017951 34.9339962,19.9932326 C34.8375109,19.8316705 34.8884998,19.6263538 35.0515361,19.5392109 L38.6187451,17.4770737 C38.7757396,17.3819671 38.9798783,17.4339599 39.076272,17.5945152 C39.1623215,17.7528735 39.1077625,17.9581902 38.9495779,18.0510999 L35.3846575,20.1119557 C35.3361402,20.1408812 35.2792011,20.1582732 35.2220789,20.1593716"
                              id="Fill-28"></path>
                        <path d="M35.1687099,9.18467847 L29.6787527,12.3526698 L29.6787527,18.6932294 L35.1687099,21.8624107 L40.6658074,18.6932294 L40.6658074,12.3526698 L35.1687099,9.18467847 Z M35.1687099,9.95038241 L40.0015786,12.7365745 L40.0015786,18.3103316 L35.1687099,21.0932284 L30.34408,18.3103316 L30.34408,12.7365745 L35.1687099,9.95038241 Z"
                              id="Fill-29"></path>
                        <path d="M31.4900028,18.0619927 C31.3055457,18.0619927 31.1549591,17.9148934 31.1549591,17.7304471 L31.1549591,13.6111155 C31.1549591,13.4255707 31.3055457,13.2796613 31.4900028,13.2796613 C31.6662212,13.2796613 31.8214764,13.4255707 31.8214764,13.6111155 L31.8214764,17.7304471 C31.8214764,17.9148934 31.6662212,18.0619927 31.4900028,18.0619927"
                              id="Fill-30"></path>
                        <path d="M29.9694901,0.253906802 L24.4712941,3.42546809 L24.4712941,9.76721761 L29.9694901,12.9330121 L35.4571588,9.76721761 L35.4571588,3.42546809 L29.9694901,0.253906802 Z M29.9694901,1.0219907 L34.79412,3.80946426 L34.79412,9.37855306 L29.9694901,12.168315 L25.14129,9.37855306 L25.14129,3.80946426 L29.9694901,1.0219907 Z"
                              id="Fill-31"></path>
                        <path d="M26.3020427,8.8591742 C26.1200572,8.8591742 25.969379,8.70978641 25.969379,8.5253401 L25.969379,4.40362855 C25.969379,4.22275217 26.1200572,4.07098443 26.3020427,4.07098443 C26.4864998,4.07098443 26.6358964,4.22275217 26.6358964,4.40362855 L26.6358964,8.5253401 C26.6358964,8.70978641 26.4864998,8.8591742 26.3020427,8.8591742"
                              id="Fill-32"></path>
                        <path d="M20.4299891,12.1485431 L14.9353632,15.3200129 L14.9353632,21.659474 L20.4299891,24.8298453 L25.9141792,21.659474 L25.9141792,15.3200129 L20.4299891,12.1485431 Z M20.4299891,12.916627 L25.2569991,15.7028191 L25.2569991,21.2719079 L20.4299891,24.0676197 L15.6018806,21.2719079 L15.6018806,15.7028191 L20.4299891,12.916627 Z"
                              id="Fill-33"></path>
                        <path d="M16.7199747,20.7514306 C16.5401862,20.7514306 16.3849309,20.6054296 16.3849309,20.4209833 L16.3849309,16.2981733 C16.3849309,16.1160154 16.5401862,15.9678176 16.7199747,15.9678176 C16.9020517,15.9678176 17.0538284,16.1160154 17.0538284,16.2981733 L17.0538284,20.4209833 C17.0538284,20.6054296 16.9020517,20.7514306 16.7199747,20.7514306"
                              id="Fill-34"></path>
                        <polyline id="Fill-35" points="20.2549608 12.7776744 15.5096062 9.91440851 15.8564589 9.34349453 20.6004403 12.2104219 20.2549608 12.7776744"></polyline>
                        <polyline id="Fill-36" points="20.5496345 12.8658242 19.9980939 12.4287368 24.7398783 9.56299938 25.0818793 10.1338218 20.5496345 12.8658242"></polyline>
                        <path d="M10.9834948,11.2460835 C10.8703489,11.2482803 10.7583015,11.1885069 10.6954121,11.0799445 C10.5990184,10.9182908 10.6500073,10.7130656 10.812952,10.6259228 L14.3802525,8.56378548 C14.5371555,8.46867892 14.7412942,8.52067173 14.8377795,8.68122698 C14.9237374,8.83958536 14.8691784,9.04490203 14.7109938,9.13781171 L11.1460734,11.1986675 C11.0975561,11.2275931 11.040617,11.244985 10.9834948,11.2460835"
                              id="Fill-37"></path>
                        <path d="M29.9967696,11.2460835 C29.8835321,11.2482803 29.7714847,11.1885069 29.7086869,11.0799445 C29.6122016,10.9182908 29.6631905,10.7130656 29.8261353,10.6259228 L33.3934358,8.56378548 C33.5504303,8.46867892 33.7544774,8.52067173 33.8509627,8.68122698 C33.9369207,8.83958536 33.8823616,9.04490203 33.724177,9.13781171 L30.1592567,11.1986675 C30.1108309,11.2275931 30.0538918,11.244985 29.9967696,11.2460835"
                              id="Fill-38"></path>
                    </g>
                </g>
            </g>
        </g>
    </g>
</svg>