<svg width="60px" height="43px" viewBox="0 0 60 43" version="1.1" xmlns="http://www.w3.org/2000/svg" xmlns:xlink="http://www.w3.org/1999/xlink">
    <!-- Generator: Sketch 51.2 (57519) - http://www.bohemiancoding.com/sketch -->
    <desc>Created with Sketch.</desc>
    <defs>
        <polygon id="path-1" points="0.00918367347 0.147623239 60 0.147623239 60 42.9998486 0.00918367347 42.9998486"></polygon>
    </defs>
    <g id="home" stroke="none" stroke-width="1" fill="none" fill-rule="evenodd">
        <g id="01MainPage" transform="translate(-680.000000, -478.000000)">
            <g id="cell04" transform="translate(642.000000, 478.000000)">
                <g id="Group" transform="translate(38.000000, 0.000000)">
                    <g id="Group-3">
                        <mask id="mask-2" fill="white">
                            <use xlink:href="#path-1"></use>
                        </mask>
                        <g id="Clip-2"></g>
                        <path d="M56.6703061,0.147623239 L3.32969388,0.147623239 C1.49357143,0.147623239 0,1.6250669 0,3.44136268 L0,39.7061092 C0,41.5224049 1.49357143,42.9998486 3.32969388,42.9998486 L56.6703061,42.9998486 C58.5064286,42.9998486 60,41.5224049 60,39.7061092 L60,3.44136268 C60,1.6250669 58.5064286,0.147623239 56.6703061,0.147623239 Z M3.32969388,2.57015845 L56.6703061,2.57015845 C57.1558163,2.57015845 57.5510204,2.96109507 57.5510204,3.44136268 L57.5510204,7.17221831 L2.44897959,7.17221831 L2.44897959,3.44136268 C2.44897959,2.96109507 2.84418367,2.57015845 3.32969388,2.57015845 Z M56.6703061,40.577919 L3.32969388,40.577919 C2.84418367,40.577919 2.44897959,40.1869824 2.44897959,39.7061092 L2.44897959,9.59475352 L57.5510204,9.59475352 L57.5510204,39.7061092 C57.5510204,40.1869824 57.1558163,40.577919 56.6703061,40.577919 Z"
                              id="Fill-1" stroke="#05ACFF" fill="#05ACFF" mask="url(#mask-2)"></path>
                    </g>
                    <path d="M23.6402584,17.3712904 C23.160603,16.8761308 22.383638,16.8761308 21.9039826,17.3719251 L16.3597799,23.1026719 C16.1295453,23.3406532 16,23.6635144 16,24.0000199 C16,24.3365253 16.1295453,24.6593865 16.3597799,24.8973678 L21.9039826,30.6281147 C22.1437335,30.8760911 22.457927,31 22.7721205,31 C23.086314,31 23.4005075,30.8760911 23.6402584,30.6281147 C24.1199139,30.1323204 24.1199139,29.3285784 23.6402584,28.8327842 L18.9641937,24.0000199 L23.6402584,19.1659863 C24.1199139,18.6708267 24.1199139,17.8670847 23.6402584,17.3712904 Z"
                          id="Fill-4" fill="#05ACFF"></path>
                    <path d="M37.0961307,17.3719251 C36.6164845,16.8761308 35.8393809,16.8761308 35.3597347,17.3712904 C34.8800884,17.8670847 34.8800884,18.6708267 35.3597347,19.1666209 L40.0357097,24.0000199 L35.3597347,28.8334188 C34.8800884,29.3292131 34.8800884,30.1323204 35.3597347,30.6281147 C35.5996345,30.8760911 35.913822,31 36.2280094,31 C36.5421969,31 36.8562308,30.8760911 37.0961307,30.6281147 L42.640227,24.8973678 C42.8704572,24.6593865 43,24.3365253 43,24.0000199 C43,23.6635144 42.8704572,23.3406532 42.640227,23.1026719 L37.0961307,17.3719251 Z"
                          id="Fill-5" fill="#05ACFF"></path>
                    <path d="M32.3467068,17.1329179 C31.7604314,16.8254315 31.045755,17.0697568 30.7497193,17.676873 L25.1280141,29.2114644 C24.8318298,29.8187346 25.067083,30.5600295 25.6533585,30.8670537 C25.8251543,30.9571737 26.008096,31 26.1879168,31 C26.6227563,31 27.0408027,30.7519774 27.250346,30.3229445 L32.8720512,18.7883532 C33.1680869,18.181237 32.9329823,17.4397881 32.3467068,17.1329179 Z"
                          id="Fill-6" fill="#05ACFF"></path>
                </g>
            </g>
        </g>
    </g>
</svg>