<svg width="58px" height="63px" viewBox="0 0 58 63" version="1.1" xmlns="http://www.w3.org/2000/svg" xmlns:xlink="http://www.w3.org/1999/xlink">
    <!-- Generator: Sketch 51.2 (57519) - http://www.bohemiancoding.com/sketch -->
    <desc>Created with Sketch.</desc>
    <defs></defs>
    <g id="home" stroke="none" stroke-width="1" fill="none" fill-rule="evenodd">
        <g id="01MainPage" transform="translate(-481.000000, -469.000000)" fill="#05ACFF">
            <g id="cell03" transform="translate(432.000000, 469.000000)">
                <path d="M106.973407,14.852111 C106.973407,14.6132705 106.920054,14.3735991 106.813681,14.1477228 C106.600769,13.6951393 106.188408,13.3894834 105.736489,13.2965733 L78.6511186,0.159684033 C78.2129951,-0.0532280112 77.694261,-0.0532280112 77.2553065,0.159684033 L49.904336,13.4160766 C49.3719728,13.6685461 49.0265932,14.2009093 49,14.7989245 L49,48.1340365 C49,48.7455145 49.3453796,49.3039724 49.904336,49.569406 L77.2553065,62.8264634 C77.2682707,62.8264634 77.2682707,62.8264634 77.2818997,62.8394276 C77.3214571,62.8530566 77.3618456,62.8660208 77.401403,62.8926141 C77.4150321,62.8926141 77.4279963,62.9062431 77.4545895,62.9062431 L77.5747576,62.9459667 C77.5877218,62.9459667 77.600686,62.9595958 77.6143151,62.9595958 C77.6538725,62.97256 77.7072252,62.97256 77.7474474,62.986189 L77.7870049,62.986189 C77.8403575,62.986189 77.907173,62.9991532 77.9596946,62.9991532 C78.0130473,62.9991532 78.0798628,62.9991532 78.1330493,62.986189 L78.1727729,62.986189 C78.2129951,62.986189 78.2655168,62.97256 78.305739,62.9595958 C78.3187032,62.9595958 78.3323323,62.9459667 78.3454627,62.9459667 L78.4654646,62.9062431 C78.4784288,62.9062431 78.4920579,62.8926141 78.5188173,62.8926141 C78.5583747,62.8796499 78.5979321,62.8660208 78.6381544,62.8394276 C78.6511186,62.8394276 78.6511186,62.8394276 78.6647476,62.8264634 L106.095664,49.5298486 C106.640991,49.2635839 107,48.7052923 107,48.093648 L107,14.8924994 C106.973407,14.8788704 106.973407,14.86574 106.973407,14.852111 Z M77.9467304,3.36366958 L101.667725,14.86574 L92.9320153,19.1073601 L69.2111869,7.60595453 L77.9467304,3.36366958 Z M77.9467304,26.3673118 L54.2257358,14.86574 L65.5546179,9.37373947 L89.2754463,20.8759761 L77.9467304,26.3673118 Z M52.1910213,17.4316543 L76.3509705,29.1459719 L76.3509705,58.837479 L52.1910213,47.1231613 L52.1910213,17.4316543 Z M79.5426566,58.837479 L79.5426566,29.1459719 L90.8843366,23.6410072 L90.8843366,31.4067288 C90.8843366,32.2838068 91.6023538,33.0019902 92.4802628,33.0019902 C93.3573408,33.0019902 94.075358,32.2838068 94.075358,31.4067288 L94.075358,22.0854694 L103.782385,17.3784678 L103.782385,47.0698087 L79.5426566,58.837479 Z"
                      id="Fill-1"></path>
            </g>
        </g>
    </g>
</svg>