<svg width="59px" height="63px" viewBox="0 0 59 63" version="1.1" xmlns="http://www.w3.org/2000/svg" xmlns:xlink="http://www.w3.org/1999/xlink">
    <!-- Generator: Sketch 51.2 (57519) - http://www.bohemiancoding.com/sketch -->
    <desc>Created with Sketch.</desc>
    <defs></defs>
    <g id="home" stroke="none" stroke-width="1" fill="none" fill-rule="evenodd">
        <g id="01MainPage" transform="translate(-91.000000, -471.000000)" fill="#05ACFF">
            <g id="cell01" transform="translate(51.000000, 472.000000)">
                <g id="Logo" transform="translate(41.000000, 0.000000)">
                    <path d="M11.0011573,24 L35.9988427,24 C36.5500417,24 37,23.550407 37,22.9968691 C37,22.4445836 36.5500417,22 35.9988427,22 L11.0011573,22 C10.4487085,22 10,22.4445836 10,22.9968691 C10,23.550407 10.4487085,24 11.0011573,24 Z"
                          id="Fill-1"></path>
                    <path d="M11.0010414,16 L20.9989586,16 C21.5500937,16 22,15.5505618 22,15 C22,14.4494382 21.5500937,14 20.9989586,14 L11.0010414,14 C10.4486565,14 10,14.4494382 10,15 C10,15.5505618 10.4486565,16 11.0010414,16 Z"
                          id="Fill-2"></path>
                    <path d="M11.0011573,33 L35.9988427,33 C36.5500417,33 37,32.5505618 37,32 C37,31.4481898 36.5500417,31 35.9988427,31 L11.0011573,31 C10.4487085,31 10,31.4481898 10,32 C10,32.5505618 10.4487085,33 11.0011573,33 Z"
                          id="Fill-3"></path>
                    <path d="M27.9986841,38 L11.0013159,38 C10.4487795,38 10,38.4494382 10,39 C10,39.5518102 10.4487795,40 11.0013159,40 L27.9986841,40 C28.5512205,40 29,39.5518102 29,39 C29,38.4494382 28.5512205,38 27.9986841,38 Z"
                          id="Fill-4"></path>
                    <g id="Group-8">
                        <path d="M25.2173913,46.7679375 L11.096913,46.7679375 C10.5396087,46.7679375 10.0869565,47.2241667 10.0869565,47.785875 C10.0869565,48.3463125 10.5396087,48.7974583 11.096913,48.7974583 L25.2173913,48.7974583 C25.7734348,48.7974583 26.2273478,48.3463125 26.2273478,47.785875 C26.2273478,47.2241667 25.7734348,46.7679375 25.2173913,46.7679375 Z"
                              id="Fill-5"></path>
                        <path d="M47.4112174,34.93775 L47.4112174,14.8280833 L32.6943478,0 L0,0 L0,61 L44.3813478,61 C51.6124348,61 57.4981739,55.0728333 57.4981739,47.785875 C57.4981739,41.5448125 53.1834783,36.317875 47.4112174,34.93775 Z M33.2844348,3.469375 L43.9627391,14.2320625 L33.2844348,14.2320625 L33.2844348,3.469375 Z M37.4024348,58.964125 L2.01991304,58.964125 L2.01991304,2.035875 L31.2708261,2.035875 L31.2708261,16.2679375 L45.3913043,16.2679375 L45.3913043,34.609875 C45.047087,34.5806458 44.7116957,34.5653958 44.3813478,34.5653958 C37.1515217,34.5653958 31.2708261,40.4976458 31.2708261,47.785875 C31.2708261,48.1874583 31.2947826,48.5890417 31.330087,48.9868125 C31.338913,49.0808542 31.349,49.1698125 31.359087,49.265125 C31.3981739,49.6514583 31.4574348,50.0339792 31.5318261,50.4114167 C31.541913,50.4558958 31.5507391,50.500375 31.5608261,50.5448542 C31.6352174,50.8879792 31.7234783,51.2260208 31.8218261,51.5577083 C31.8470435,51.6428542 31.871,51.7267292 31.8962174,51.811875 C32.0096957,52.1689792 32.1370435,52.521 32.2807826,52.864125 C32.3047391,52.9276667 32.335,52.9924792 32.364,53.0572917 C32.4926087,53.35975 32.635087,53.6533125 32.7876522,53.9405208 C32.8216957,54.0104167 32.857,54.0803125 32.896087,54.1489375 C33.0726087,54.4717292 33.2604783,54.7843542 33.4622174,55.0931667 C33.5113913,55.1617917 33.5555217,55.2266042 33.6046957,55.2965 C33.7925652,55.5646458 33.9842174,55.8277083 34.1859565,56.0806042 C34.2263043,56.1301667 34.2603478,56.1797292 34.2994348,56.2242083 C34.5364783,56.5076042 34.7823478,56.7808333 35.0332609,57.0388125 C35.0975652,57.103625 35.1618696,57.1671667 35.2261739,57.2268958 C35.4720435,57.4708958 35.728,57.7085417 35.989,57.9322083 C36.0129565,57.9525417 36.0381739,57.9716042 36.0633913,57.9919375 C36.3433043,58.2295833 36.6433913,58.4481667 36.9497826,58.6616667 C37.022913,58.7112292 37.0973043,58.7607917 37.1704348,58.8103542 C37.2498696,58.8599167 37.3242609,58.9145625 37.4024348,58.964125 Z M44.3813478,58.964125 C38.2648696,58.964125 33.2844348,53.9506875 33.2844348,47.785875 C33.2844348,41.6147083 38.2648696,36.6012708 44.3813478,36.6012708 C44.6965652,36.6012708 45.0067391,36.6203333 45.316913,36.64575 C45.6081739,36.6749792 45.9133043,36.7156458 46.2335652,36.7702917 L46.6811739,36.844 C51.7006957,37.9165833 55.4782609,42.4089792 55.4782609,47.785875 C55.4782609,53.9506875 50.499087,58.964125 44.3813478,58.964125 Z"
                              id="Fill-7" stroke="#05ACFF" stroke-width="0.5"></path>
                    </g>
                    <path d="M50.1794875,42.4333328 L44.583406,50.522533 L40.6335249,47.2586685 C40.2085377,46.9051041 39.5785566,46.9692741 39.2273172,47.4021074 C38.8760778,47.8299077 38.9398259,48.4640587 39.3635631,48.817623 L44.1534189,52.7735175 C44.3296636,52.9207311 44.5546568,53 44.7833999,53 C44.8321485,53 44.8771471,52.9949671 44.9208958,52.9899341 C45.1983875,52.9509288 45.4483799,52.7986822 45.6096251,52.5671668 L51.8194381,43.5833607 C52.1369286,43.1253627 52.024432,42.4962446 51.5706956,42.1816856 C51.1169593,41.8620936 50.496978,41.9753349 50.1794875,42.4333328 Z"
                          id="Fill-9"></path>
                </g>
            </g>
        </g>
    </g>
</svg>