<svg width="19px" height="18px" viewBox="0 0 19 18" version="1.1" xmlns="http://www.w3.org/2000/svg" xmlns:xlink="http://www.w3.org/1999/xlink">
    <!-- Generator: Sketch 51.2 (57519) - http://www.bohemiancoding.com/sketch -->
    <desc>Created with Sketch.</desc>
    <defs></defs>
    <g id="home" stroke="none" stroke-width="1" fill="none" fill-rule="evenodd" opacity="0.673081342">
        <g id="01MainPage" transform="translate(-770.000000, -736.000000)" stroke="#000000" stroke-width="0.8">
            <g id="Content" transform="translate(0.000000, -5.000000)">
                <g id="Header">
                    <g id="Footer" transform="translate(0.000000, 705.000000)">
                        <g id="Follow" transform="translate(662.000000, 0.000000)">
                            <path d="M118.35943,50.4865687 L116.082943,53.169333 C115.958341,53.3160432 115.776438,53.4 115.585766,53.4 C115.516609,53.4 115.447816,53.3888703 115.37877,53.3662503 C115.128086,53.2818832 114.952986,53.0548277 114.933556,52.7914251 L114.578642,48.0934224 C114.564862,47.9068531 114.630312,47.7229594 114.759634,47.5876719 L114.830279,47.5137727 L114.315096,47.9053407 C114.117437,48.0553848 113.852237,48.0806638 113.6306,47.9696412 L108.9633,45.6402557 C108.738079,45.5276432 108.59746,45.2955053 108.600035,45.043695 C108.60261,44.7918148 108.748116,44.5628253 108.97626,44.4544572 L125.468697,36.6618542 C125.705103,36.5508455 125.984305,36.591555 126.179431,36.7653262 L126.179874,36.7657215 C126.372432,36.9377193 126.446576,37.2067417 126.370565,37.4538342 L122.051622,51.441695 C121.995404,51.6232269 121.863795,51.7722244 121.691137,51.8482735 C121.515756,51.9262909 121.314956,51.9230032 121.142825,51.8390885 L118.35943,50.4865687 Z"
                                  id="Fill-1"></path>
                        </g>
                    </g>
                </g>
            </g>
        </g>
    </g>
</svg>