<svg width="20px" height="17px" viewBox="0 0 20 17" version="1.1" xmlns="http://www.w3.org/2000/svg" xmlns:xlink="http://www.w3.org/1999/xlink">
    <!-- Generator: Sketch 51.2 (57519) - http://www.bohemiancoding.com/sketch -->
    <desc>Created with Sketch.</desc>
    <defs></defs>
    <g id="home" stroke="none" stroke-width="1" fill="none" fill-rule="evenodd" opacity="0.783605239">
        <g id="01MainPage" transform="translate(-937.000000, -737.000000)" fill="#0A0B09" stroke="#000000" stroke-width="0.2">
            <g id="Content" transform="translate(0.000000, -5.000000)">
                <g id="Header">
                    <g id="Footer" transform="translate(0.000000, 705.000000)">
                        <g id="Follow" transform="translate(662.000000, 0.000000)">
                            <path d="M277.062743,51.4063735 C278.070949,51.9063397 279.934635,52.3750513 282.71485,52.3750513 C287.75595,52.3750513 291.880451,47.750445 291.880451,42.0634332 L291.880451,41.5322123 L292.06377,41.4697391 C292.644254,41.2509926 292.980334,40.7822811 293.194213,40.3760788 L292.002652,40.7822811 C291.849891,40.8447903 291.666607,40.7822811 291.605488,40.6260439 C291.544405,40.4698067 291.574929,40.2823149 291.697166,40.188587 C292.185972,39.7823847 292.552611,39.3448918 292.827573,38.8761802 C292.216531,39.1261813 291.666607,39.3448918 291.208325,39.5011289 C291.025005,39.5636382 290.841685,39.5323836 290.658366,39.4386557 C290.322321,39.2511639 289.161319,38.5949605 288.458634,38.6262151 C286.625507,38.6574698 285.159019,40.2510962 285.159019,42.1884157 L285.159019,43.0633295 L284.792415,43.0008563 C281.431682,42.3759075 279.567995,41.4697391 277.612667,39.5011289 C276.696103,41.8759413 278.590349,43.5320411 279.23195,44.0007526 L279.995718,44.5631921 L279.048631,44.5631921 C278.437588,44.5631921 277.765427,44.5007188 277.154385,44.2194991 C277.826546,45.6568524 279.201391,46.719258 280.362358,47.062987 L280.270715,47.6879358 C280.026277,47.6879358 279.781874,47.6879358 279.537436,47.7191904 C278.89587,47.750445 278.315387,47.750445 277.765427,47.5629532 C278.37647,48.7503414 279.445794,49.2503076 281.187279,49.2503076 L282.103807,49.2503076 L281.340004,49.8127471 C280.392917,50.5626783 279.170832,51.2501363 277.062743,51.4063735 Z M282.71485,53 C279.690197,53 277.246062,52.4687792 276.146179,51.5626107 C276.023978,51.4376282 275.962859,51.281391 276.023978,51.0938992 C276.085061,50.937662 276.237821,50.8126794 276.421141,50.8126794 C278.223709,50.7814248 279.384711,50.3439679 280.270715,49.8127471 C278.55979,49.5940366 277.490465,48.7503414 276.940541,47.1567509 C276.879423,47.0005138 276.940541,46.8442766 277.062743,46.7505127 C277.184944,46.6567848 277.368264,46.6567848 277.490465,46.719258 C277.948747,47.0317324 278.407029,47.0942417 278.956953,47.0942417 C277.795987,46.375565 276.726662,45.1881408 276.29894,43.7195329 C276.268381,43.5632957 276.329499,43.3758039 276.4517,43.3133306 C276.604461,43.2195667 276.757222,43.2508214 276.879423,43.3445493 C277.215503,43.625805 277.582143,43.8132608 278.132067,43.9070247 C276.940541,42.6571273 276.207297,40.8135357 277.246062,38.7824523 L277.429382,38.4075047 L277.734868,38.719979 C279.629114,40.7510264 281.370563,41.6884495 284.547977,42.3133982 L284.547977,42.1884157 C284.547977,39.9073672 286.289462,38.032521 288.458634,38.0012664 C289.314079,38.0012664 290.505605,38.6262151 290.994446,38.9074348 C291.025005,38.9074348 291.055564,38.9386895 291.055564,38.9074348 C291.666607,38.719979 292.399851,38.4075047 293.255296,38.032521 C293.377497,37.9700117 293.530258,38.0012664 293.621935,38.0950303 C293.713578,38.1887582 293.744137,38.3137408 293.683019,38.4699779 C293.530258,38.9074348 293.285855,39.3761464 292.919216,39.8136033 L293.530258,39.5948929 C293.652495,39.5636382 293.805255,39.5948929 293.896897,39.6886208 C293.98854,39.7823847 294.019099,39.9386219 293.98854,40.0636044 C293.713578,40.9697729 293.163654,41.6259762 292.491493,41.9696692 L292.491493,42.0634332 C292.491493,48.094138 288.09203,53 282.71485,53 Z"
                                  id="Fill-1"></path>
                        </g>
                    </g>
                </g>
            </g>
        </g>
    </g>
</svg>